# xmcd
#
# Track frame offsets: 
#        150
#        20633
#        30973
#        50531
#        81168
#        97244
#        111529
#        123322
#        147399
#        170399
#        187553
#        204759
#        226468
#        259561
#        284815
#        315153
#        328841
#        344389
#
# Disc length: 4773 seconds
#
# Revision: 0
# Processed by: cddbd v1.5.2PL0 Copyright (c) Steve Scherf et al.
# Submitted via: ExactAudioCopy v0.95a5
#
DISCID=fd12a312
DTITLE=Various Artist - Blues Instrumental - 1
DYEAR=2007
DGENRE=Blues
TTITLE0=Sundance - DANNY JOHNSON
TTITLE1=Cotton Pickin' Blues - CHRIS BELL and 100% Blues
TTITLE2=Jazzy fuzzy - IKE TURNER
TTITLE3=Midnight In Memphis - PRESTON SHANNON
TTITLE4=Rick's Boogie Woogie - RICK VITO
TTITLE5=Papa Grooves Funk - RUDY ROTTA
TTITLE6=Wicked Wacky Blues - HENRY COOPER
TTITLE7=I Walk Alone - BIG HOUSE
TTITLE8=Alchemy - PHILIP SAYCE
TTITLE9=Double Nickels - PETER FRAMPTON
TTITLE10=Kelly's Blues - SONNY BLACK and The DUKES
TTITLE11=Tag (You're It) - LITTLE CHARLIE And The NIGHTCATS
TTITLE12=Sweet ´n´Sour - GREGOR HILDEN
TTITLE13=Cookin' - DUKE ROBILLARD
TTITLE14=Upton Strut - STORM WARNING
TTITLE15=Mara's Dream - TOSCHO
TTITLE16=Reach For The Sky - GEOFF ACHISON and The SOULDIGGERS
TTITLE17=A Blue Part Of Town - STEVE HACKETT
EXTD=
EXTT0=
EXTT1=
EXTT2=
EXTT3=
EXTT4=
EXTT5=
EXTT6=
EXTT7=
EXTT8=
EXTT9=
EXTT10=
EXTT11=
EXTT12=
EXTT13=
EXTT14=
EXTT15=
EXTT16=
EXTT17=
PLAYORDER=
